<svg width="51" height="35" viewBox="0 0 51 35" fill="none" xmlns="http://www.w3.org/2000/svg">
<path fill-rule="evenodd" clip-rule="evenodd" d="M37.8009 8.59168C40.0932 8.59168 41.9515 6.66836 41.9515 4.29584C41.9515 1.92331 40.0932 0 37.8009 0C35.5086 0 33.6504 1.92331 33.6504 4.29584C33.6504 6.66836 35.5086 8.59168 37.8009 8.59168ZM26.3266 34.605H1.00547C0.222863 34.605 -0.258785 33.7492 0.147261 33.0802L17.4786 4.5241C17.8634 3.89009 18.7731 3.86875 19.1742 4.49253C21.3061 7.80758 27.0002 16.6739 31.8312 24.3033L37.0723 15.6171C37.4442 15.0008 38.314 14.9781 38.7268 15.5739L50.8133 33.0197C51.2768 33.6887 50.8259 34.6082 50.0275 34.6163L38.3065 34.7345L26.3266 34.605Z" fill="#F3F094"/>
</svg>
