<svg width="75" height="75" viewBox="0 0 75 75" fill="none" xmlns="http://www.w3.org/2000/svg">
<path fill-rule="evenodd" clip-rule="evenodd" d="M37.5 74.7984C58.0993 74.7984 74.7984 58.0993 74.7984 37.5C74.7984 16.9007 58.0993 0.201625 37.5 0.201625C16.9007 0.201625 0.201625 16.9007 0.201625 37.5C0.201625 58.0993 16.9007 74.7984 37.5 74.7984Z" fill="#AAA4F4" stroke="#2F2E2E" stroke-width="0.4"/>
<path fill-rule="evenodd" clip-rule="evenodd" d="M38.2936 38.2936C44.4296 38.2936 49.4037 33.3194 49.4037 27.1834C49.4037 21.0475 44.4296 16.0733 38.2936 16.0733C32.1576 16.0733 27.1834 21.0475 27.1834 27.1834C27.1834 33.3194 32.1576 38.2936 38.2936 38.2936Z" fill="#EEEA8F" stroke="#2F2E2E" stroke-width="0.4"/>
<path fill-rule="evenodd" clip-rule="evenodd" d="M38.2936 41.4679C27.7748 41.4679 19.2476 49.2845 19.2476 58.9267H57.3396C57.3396 49.2845 48.8124 41.4679 38.2936 41.4679Z" fill="#EEEA8F" stroke="#2F2E2E" stroke-width="0.4"/>
</svg>
