<svg width="45" height="45" viewBox="0 0 45 45" fill="none" xmlns="http://www.w3.org/2000/svg">
<path d="M28.125 29.9994V26.2492C28.9688 25.8311 31.3819 22.9585 31.635 20.714C32.2987 20.6634 33.3412 20.054 33.6488 17.6482C33.8137 16.3563 33.1575 15.6307 32.76 15.4019C32.76 15.4019 33.75 13.5212 33.75 11.2505C33.75 6.69778 31.9631 2.81262 28.125 2.81262C28.125 2.81262 26.7919 0 22.5 0C14.5462 0 11.25 5.10209 11.25 11.2505C11.25 13.3206 12.24 15.4019 12.24 15.4019C11.8425 15.6307 11.1862 16.3582 11.3512 17.6482C11.6587 20.054 12.7013 20.6634 13.365 20.714C13.6181 22.9585 16.0312 25.8311 16.875 26.2492V29.9994C15 35.6246 0 31.8745 0 45H45C45 31.8745 30 35.6246 28.125 29.9994Z" fill="#AAA4F4"/>
</svg>
