<svg width="53" height="32" viewBox="0 0 53 32" fill="none" xmlns="http://www.w3.org/2000/svg">
<g filter="url(#filter0_d_0_16)">
<path d="M5.72416 0.00015001C5.49889 -0.00266104 5.27523 0.0340606 5.06619 0.10818C4.85715 0.1823 4.66688 0.29234 4.50646 0.431906C4.34603 0.571471 4.21864 0.737778 4.13169 0.921162C4.04474 1.10455 3.99996 1.30135 3.99996 1.50014C3.99996 1.69892 4.04474 1.89573 4.13169 2.07911C4.21864 2.26249 4.34603 2.4288 4.50646 2.56837C4.66688 2.70793 4.85715 2.81797 5.06619 2.89209C5.27523 2.96621 5.49889 3.00293 5.72416 3.00012H46.5238C46.749 3.00293 46.9727 2.96621 47.1817 2.89209C47.3908 2.81797 47.581 2.70793 47.7415 2.56837C47.9019 2.4288 48.0293 2.26249 48.1162 2.07911C48.2032 1.89573 48.248 1.69892 48.248 1.50014C48.248 1.30135 48.2032 1.10455 48.1162 0.921162C48.0293 0.737778 47.9019 0.571471 47.7415 0.431906C47.581 0.29234 47.3908 0.1823 47.1817 0.10818C46.9727 0.0340606 46.749 -0.00266104 46.5238 0.00015001H5.72416ZM5.72416 10.5001C5.49889 10.4972 5.27523 10.534 5.06619 10.6081C4.85715 10.6822 4.66688 10.7922 4.50646 10.9318C4.34603 11.0714 4.21864 11.2377 4.13169 11.4211C4.04474 11.6044 3.99996 11.8013 3.99996 12C3.99996 12.1988 4.04474 12.3956 4.13169 12.579C4.21864 12.7624 4.34603 12.9287 4.50646 13.0683C4.66688 13.2078 4.85715 13.3179 5.06619 13.392C5.27523 13.4661 5.49889 13.5028 5.72416 13.5H46.5238C46.749 13.5028 46.9727 13.4661 47.1817 13.392C47.3908 13.3179 47.581 13.2078 47.7415 13.0683C47.9019 12.9287 48.0293 12.7624 48.1162 12.579C48.2032 12.3956 48.248 12.1988 48.248 12C48.248 11.8013 48.2032 11.6044 48.1162 11.4211C48.0293 11.2377 47.9019 11.0714 47.7415 10.9318C47.581 10.7922 47.3908 10.6822 47.1817 10.6081C46.9727 10.534 46.749 10.4972 46.5238 10.5001H5.72416ZM5.72416 21C5.49889 20.9971 5.27523 21.0339 5.06619 21.108C4.85715 21.1821 4.66688 21.2921 4.50646 21.4317C4.34603 21.5713 4.21864 21.7376 4.13169 21.921C4.04474 22.1043 3.99996 22.3012 3.99996 22.4999C3.99996 22.6987 4.04474 22.8955 4.13169 23.0789C4.21864 23.2623 4.34603 23.4286 4.50646 23.5682C4.66688 23.7077 4.85715 23.8178 5.06619 23.8919C5.27523 23.966 5.49889 24.0027 5.72416 23.9999H46.5238C46.749 24.0027 46.9727 23.966 47.1817 23.8919C47.3908 23.8178 47.581 23.7077 47.7415 23.5682C47.9019 23.4286 48.0293 23.2623 48.1162 23.0789C48.2032 22.8955 48.248 22.6987 48.248 22.4999C48.248 22.3012 48.2032 22.1043 48.1162 21.921C48.0293 21.7376 47.9019 21.5713 47.7415 21.4317C47.581 21.2921 47.3908 21.1821 47.1817 21.108C46.9727 21.0339 46.749 20.9971 46.5238 21H5.72416Z" fill="#7268DD"/>
</g>
<defs>
<filter id="filter0_d_0_16" x="0" y="0" width="52.2479" height="32" filterUnits="userSpaceOnUse" color-interpolation-filters="sRGB">
<feFlood flood-opacity="0" result="BackgroundImageFix"/>
<feColorMatrix in="SourceAlpha" type="matrix" values="0 0 0 0 0 0 0 0 0 0 0 0 0 0 0 0 0 0 127 0" result="hardAlpha"/>
<feOffset dy="4"/>
<feGaussianBlur stdDeviation="2"/>
<feComposite in2="hardAlpha" operator="out"/>
<feColorMatrix type="matrix" values="0 0 0 0 0 0 0 0 0 0 0 0 0 0 0 0 0 0 0.25 0"/>
<feBlend mode="normal" in2="BackgroundImageFix" result="effect1_dropShadow_0_16"/>
<feBlend mode="normal" in="SourceGraphic" in2="effect1_dropShadow_0_16" result="shape"/>
</filter>
</defs>
</svg>
