<svg width="249" height="98" viewBox="0 0 249 98" fill="none" xmlns="http://www.w3.org/2000/svg">
<g clip-path="url(#clip0_55_499)">
<path d="M103.078 19.24C102.978 19.4503 103.058 19.6805 103.028 19.9007V21.4223C103.048 21.6125 102.978 21.8127 103.078 22.0029V22.3733C102.937 23.2042 102.968 24.0451 102.847 24.8659C102.627 26.3475 102.137 27.7489 101.566 29.1304C101.256 29.8812 100.655 31.0724 100.195 31.7431C98.4928 34.2157 96.3806 36.2078 93.848 37.7093C90.7347 39.5513 87.3212 40.5423 83.7274 41.0528C82.9566 41.1629 82.1658 41.213 81.385 41.253C80.6843 41.2831 79.9835 41.3231 79.2828 41.3231C77.8012 41.3431 76.3197 41.213 74.8582 40.9627C73.787 40.7825 72.756 40.9828 71.7249 41.183C69.5827 41.5934 67.4304 41.9938 65.2782 42.3642C64.6775 42.4643 64.0669 42.4543 63.4663 42.5744H62.8256C62.6154 42.4743 62.3952 42.5544 62.1749 42.5244C62.0248 42.5244 61.8746 42.5244 61.7345 42.5244C59.4321 42.4943 57.5401 40.0618 57.3599 37.9896C57.2598 36.8985 57.5801 35.8974 57.7103 34.8664C57.7803 34.3058 57.9005 33.7452 58.0406 33.2046C58.431 31.683 58.0907 30.2916 57.46 28.9001C56.4389 26.6278 56.0285 24.1352 56.0085 21.6526C55.9985 20.2111 56.0185 18.7595 56.1186 17.318C56.2487 15.4761 56.7893 13.7243 57.5201 12.0425C58.1507 10.591 58.9616 9.20958 59.9526 7.9883C61.274 6.3566 62.8156 4.98516 64.5975 3.86399C67.2602 2.19225 70.1432 1.10111 73.2165 0.450429C74.5078 0.180147 75.8192 0.100063 77.1305 0.0500108C78.2117 0.00996895 79.2928 0.0299898 80.3639 0.00996894C83.8576 -0.0300729 87.3512 0.560544 90.5846 1.87191C92.897 2.80289 95.0492 4.02416 96.9412 5.6859C98.9733 7.47777 100.505 9.60999 101.586 12.0926C102.177 13.444 102.597 14.8455 102.847 16.297C102.998 17.1479 102.958 18.0288 103.078 18.8897V19.2601V19.24Z" fill="#F5F04F"/>
<path d="M67.8208 21.5124C67.7007 19.7506 69.0721 18.3291 70.7739 18.3691C72.4156 18.4092 73.707 19.7406 73.6569 21.3522C73.6069 23.1041 72.0652 24.4455 70.2734 24.1752C68.962 23.975 67.9009 22.8338 67.8108 21.5124H67.8208Z" fill="#7268DD"/>
<path d="M91.2453 20.8216C91.5056 22.6936 90.0941 24.2352 88.3122 24.2052C86.6705 24.1751 85.3892 22.8438 85.4292 21.2221C85.4793 19.3201 87.3012 17.8886 89.2833 18.5092C90.3143 18.8296 91.1052 19.7605 91.2453 20.8216Z" fill="#7268DD"/>
<path d="M79.493 24.2052C77.8613 24.1651 76.59 22.8538 76.62 21.2521C76.65 19.6004 77.9714 18.319 79.6031 18.3591C81.2348 18.3991 82.5062 19.7105 82.4761 21.3122C82.4461 22.9539 81.1247 24.2452 79.493 24.2052Z" fill="#7268DD"/>
<path d="M2.77289 60.293C4.62482 56.8394 7.15746 54.1666 10.4009 52.2546C13.6342 50.3526 17.268 49.4016 21.2922 49.4016C24.7659 49.4016 28.0092 50.2025 30.9924 51.8041C33.9855 53.4058 36.2679 55.518 37.8395 58.1207V34.466H45.3473V94.8191H37.8395V86.4203C36.368 89.0831 34.1957 91.2754 31.3127 92.9872C28.4297 94.6989 25.0562 95.5598 21.2021 95.5598C17.3481 95.5598 13.6242 94.5788 10.3908 92.6268C7.15746 90.6647 4.61481 87.9219 2.76288 84.3882C0.910941 80.8545 -0.0100202 76.8303 -0.0100202 72.3156C-0.0100202 67.8008 0.910941 63.7366 2.76288 60.283L2.77289 60.293ZM35.8074 63.5965C34.446 61.0938 32.614 59.1819 30.3016 57.8505C27.9892 56.5191 25.4466 55.8484 22.6737 55.8484C19.9008 55.8484 17.3681 56.4991 15.0857 57.8004C12.8034 59.1018 10.9815 61.0138 9.62004 63.5064C8.25861 65.999 7.5779 68.942 7.5779 72.3156C7.5779 75.6891 8.25861 78.7223 9.62004 81.2449C10.9815 83.7775 12.8034 85.6995 15.0857 87.0409C17.3681 88.3723 19.9008 89.043 22.6737 89.043C25.4466 89.043 27.9892 88.3823 30.3016 87.0409C32.614 85.7095 34.446 83.7775 35.8074 81.2449C37.1688 78.7223 37.8495 75.7692 37.8495 72.3956C37.8495 69.0221 37.1688 66.0891 35.8074 63.5865V63.5965Z" fill="#7268DD"/>
<path d="M65.3282 50.1423H57.9104V94.839H65.3282V50.1423Z" fill="#7268DD"/>
<path d="M94.6088 87.9818L108.473 50.1423H116.382L98.8432 94.839H90.1942L72.6559 50.1423H80.6442L94.5888 87.9818H94.6088Z" fill="#A8A2F2"/>
<path d="M164.262 75.2586H128.534C128.805 79.6632 130.316 83.0967 133.059 85.5793C135.802 88.0519 139.135 89.2932 143.049 89.2932C146.263 89.2932 148.936 88.5424 151.088 87.0509C153.24 85.5593 154.742 83.5572 155.612 81.0546H163.601C162.41 85.3491 160.017 88.8428 156.423 91.5356C152.83 94.2284 148.375 95.5698 143.049 95.5698C138.805 95.5698 135.011 94.6188 131.667 92.7168C128.324 90.8148 125.701 88.112 123.799 84.5983C121.897 81.0947 120.946 77.0304 120.946 72.4056C120.946 67.7808 121.867 63.7365 123.719 60.2529C125.571 56.7793 128.164 54.0965 131.507 52.2145C134.851 50.3325 138.695 49.4016 143.049 49.4016C147.404 49.4016 151.048 50.3225 154.301 52.1745C157.565 54.0264 160.077 56.569 161.849 59.8024C163.621 63.0358 164.502 66.6896 164.502 70.7739C164.502 72.1854 164.422 73.6869 164.262 75.2586ZM154.962 61.9246C153.711 59.8825 152.009 58.3409 149.867 57.2798C147.714 56.2187 145.342 55.6881 142.729 55.6881C138.975 55.6881 135.782 56.8794 133.149 59.2719C130.516 61.6644 129.005 64.9778 128.624 69.2223H156.844C156.844 66.3993 156.223 63.9568 154.972 61.9246H154.962Z" fill="#A8A2F2"/>
<path d="M209.279 54.2567C212.652 57.5501 214.334 62.2951 214.334 68.4915V94.8391H206.996V69.5527C206.996 65.098 205.885 61.6844 203.653 59.322C201.42 56.9595 198.377 55.7783 194.513 55.7783C190.649 55.7783 187.486 56.9995 185.173 59.4521C182.861 61.8947 181.71 65.4584 181.71 70.1333V94.8491H174.292V50.1524H181.71V56.509C183.181 54.2267 185.173 52.4548 187.706 51.2035C190.239 49.9522 193.022 49.3315 196.065 49.3315C201.5 49.3315 205.905 50.9733 209.279 54.2667V54.2567Z" fill="#A8A2F2"/>
<path d="M237.338 58.6212V84.9687C237.338 87.1409 237.798 88.6826 238.719 89.5735C239.64 90.4644 241.252 90.9149 243.534 90.9149H249V97.1914H242.313C238.179 97.1914 235.085 96.2404 233.013 94.3385C230.941 92.4365 229.91 89.3132 229.91 84.9587V58.6112H224.124V52.4948H229.91V41.243H237.328V52.4948H248.99V58.6112H237.328L237.338 58.6212Z" fill="#A8A2F2"/>
</g>
<defs>
<clipPath id="clip0_55_499">
<rect width="248.74" height="97.1" fill="white" transform="scale(1.00105)"/>
</clipPath>
</defs>
</svg>
