<svg width="45" height="24" viewBox="0 0 45 24" fill="none" xmlns="http://www.w3.org/2000/svg">
<path d="M1.72419 0.000150009C1.49893 -0.00266103 1.27527 0.0340605 1.06623 0.10818C0.857184 0.1823 0.66692 0.29234 0.506493 0.431905C0.346067 0.571471 0.218677 0.737778 0.131726 0.921162C0.0447761 1.10455 0 1.30135 0 1.50013C0 1.69892 0.0447761 1.89572 0.131726 2.07911C0.218677 2.26249 0.346067 2.4288 0.506493 2.56836C0.66692 2.70793 0.857184 2.81797 1.06623 2.89209C1.27527 2.96621 1.49893 3.00293 1.72419 3.00012H42.5238C42.749 3.00293 42.9727 2.96621 43.1817 2.89209C43.3908 2.81797 43.5811 2.70793 43.7415 2.56836C43.9019 2.4288 44.0293 2.26249 44.1162 2.07911C44.2032 1.89572 44.248 1.69892 44.248 1.50013C44.248 1.30135 44.2032 1.10455 44.1162 0.921162C44.0293 0.737778 43.9019 0.571471 43.7415 0.431905C43.5811 0.29234 43.3908 0.1823 43.1817 0.10818C42.9727 0.0340605 42.749 -0.00266103 42.5238 0.000150009H1.72419ZM1.72419 10.5C1.49893 10.4972 1.27527 10.534 1.06623 10.6081C0.857184 10.6822 0.66692 10.7922 0.506493 10.9318C0.346067 11.0714 0.218677 11.2377 0.131726 11.4211C0.0447761 11.6044 0 11.8012 0 12C0 12.1988 0.0447761 12.3956 0.131726 12.579C0.218677 12.7624 0.346067 12.9287 0.506493 13.0683C0.66692 13.2078 0.857184 13.3179 1.06623 13.392C1.27527 13.4661 1.49893 13.5028 1.72419 13.5H42.5238C42.749 13.5028 42.9727 13.4661 43.1817 13.392C43.3908 13.3179 43.5811 13.2078 43.7415 13.0683C43.9019 12.9287 44.0293 12.7624 44.1162 12.579C44.2032 12.3956 44.248 12.1988 44.248 12C44.248 11.8012 44.2032 11.6044 44.1162 11.4211C44.0293 11.2377 43.9019 11.0714 43.7415 10.9318C43.5811 10.7922 43.3908 10.6822 43.1817 10.6081C42.9727 10.534 42.749 10.4972 42.5238 10.5H1.72419ZM1.72419 20.9999C1.49893 20.9971 1.27527 21.0338 1.06623 21.108C0.857184 21.1821 0.66692 21.2921 0.506493 21.4317C0.346067 21.5713 0.218677 21.7376 0.131726 21.9209C0.0447761 22.1043 0 22.3011 0 22.4999C0 22.6987 0.0447761 22.8955 0.131726 23.0789C0.218677 23.2623 0.346067 23.4286 0.506493 23.5682C0.66692 23.7077 0.857184 23.8178 1.06623 23.8919C1.27527 23.966 1.49893 24.0027 1.72419 23.9999H42.5238C42.749 24.0027 42.9727 23.966 43.1817 23.8919C43.3908 23.8178 43.5811 23.7077 43.7415 23.5682C43.9019 23.4286 44.0293 23.2623 44.1162 23.0789C44.2032 22.8955 44.248 22.6987 44.248 22.4999C44.248 22.3011 44.2032 22.1043 44.1162 21.9209C44.0293 21.7376 43.9019 21.5713 43.7415 21.4317C43.5811 21.2921 43.3908 21.1821 43.1817 21.108C42.9727 21.0338 42.749 20.9971 42.5238 20.9999H1.72419Z" fill="#AAA4F4"/>
</svg>
