<svg width="50" height="45" viewBox="0 0 50 45" fill="none" xmlns="http://www.w3.org/2000/svg">
<path d="M6.9486 0C4.82583 0 3.0633 1.67292 3.0633 3.68774V8.22509C2.41157 8.56743 1.81255 9.00428 1.33093 9.56542C0.211089 10.8689 -0.235792 12.5854 0.119424 14.2346V14.2383C1.16881 19.0838 2.6276 25.8225 2.71991 26.25C2.62773 26.6767 1.17469 33.3864 0.12714 38.2324C-0.230972 39.8898 0.219388 41.6135 1.3425 42.9235V42.9272C2.46858 44.2372 4.15852 45 5.94158 45H43.5638C45.3655 45 47.0737 44.229 48.213 42.9052V42.9016C49.3507 41.5762 49.8055 39.8339 49.4438 38.1591C48.3965 33.316 46.9583 26.6749 46.8665 26.25C46.9588 25.8223 48.4193 19.0737 49.4669 14.2273C49.8225 12.5822 49.3785 10.8653 48.2593 9.56176L48.2554 9.5581C47.7736 8.99741 47.1753 8.56264 46.5231 8.22143V3.68774C46.5231 1.67292 44.7605 0 42.6378 0H6.9486ZM7.01419 3.75H42.5722V7.49999H7.01419V3.75ZM19.0752 18.9001C19.9839 18.9001 20.8132 19.0033 21.5599 19.2114C22.3086 19.4195 22.9518 19.7291 23.4891 20.1416C24.0264 20.5541 24.4447 21.0648 24.743 21.6723C25.0413 22.2798 25.1867 22.9848 25.1867 23.7854C25.1867 24.1547 25.1298 24.5185 25.0093 24.8803C24.8887 25.2403 24.7119 25.5797 24.4768 25.8984C24.382 26.0259 24.2402 26.1336 24.1296 26.2536H17.0226V28.8574H18.9286C19.3829 28.8574 19.7938 28.9064 20.1632 29.0039C20.5307 29.1014 20.844 29.2536 21.1008 29.458C21.3576 29.6624 21.551 29.9264 21.6873 30.2527C21.8236 30.5789 21.8918 30.9671 21.8918 31.4209C21.8918 31.7734 21.831 32.0935 21.7066 32.3803C21.5821 32.6672 21.4015 32.912 21.1664 33.1201C20.9313 33.3282 20.6438 33.4911 20.306 33.5998C19.9662 33.7104 19.5886 33.7646 19.1678 33.7646C18.7865 33.7646 18.4346 33.7104 18.1106 33.5998C17.7886 33.4892 17.5104 33.3388 17.2734 33.1457C17.0383 32.9526 16.854 32.7235 16.7216 32.4572C16.5893 32.191 16.5249 31.8972 16.5249 31.5747H12.9405C12.9405 32.4222 13.1175 33.1514 13.4691 33.7683C13.8207 34.3833 14.2832 34.8939 14.8581 35.3027C15.4329 35.7114 16.0851 36.0159 16.822 36.2109C17.5568 36.4078 18.3106 36.5039 19.0791 36.5039C19.9878 36.5039 20.8317 36.3901 21.614 36.167C22.3943 35.9438 23.0725 35.6203 23.6434 35.1928C24.2143 34.7653 24.6602 34.2389 24.9861 33.6108C25.3121 32.9827 25.4761 32.2691 25.4761 31.4685C25.4761 30.5272 25.2274 29.7122 24.7276 29.0222C24.2278 28.3322 23.4686 27.8145 22.4512 27.4695C22.8898 27.282 23.2766 27.051 23.6164 26.781C23.8199 26.6179 23.9655 26.4318 24.1334 26.2536H33.0615V36.2695H36.6459V26.25H33.0615V23.1628L28.7827 24.4226V21.6577L36.26 19.1125H36.6459V26.25H42.8346L42.9156 26.6272C42.9156 26.6272 44.4894 33.9163 45.5701 38.9135C45.6926 39.4864 45.542 40.0777 45.1534 40.5322C44.7597 40.9896 44.1839 41.25 43.5638 41.25H5.94158C5.34226 41.25 4.78519 40.9953 4.40598 40.5542C4.0296 40.1134 3.87732 39.5407 3.99701 38.9868C5.07762 33.9878 6.6708 26.6272 6.6708 26.6272L6.75182 26.25H17.0187H18.8669C19.5642 26.25 20.5138 25.9818 20.9503 25.5505C21.3869 25.1193 21.6062 24.5455 21.6062 23.833C21.6062 23.5199 21.5584 23.226 21.4596 22.9541C21.3609 22.6841 21.2058 22.4495 21.0043 22.2583C20.8009 22.067 20.5505 21.9185 20.2443 21.8078C19.9381 21.6972 19.5768 21.643 19.1639 21.643C18.834 21.643 18.5246 21.6849 18.2302 21.7749C17.9379 21.8649 17.6779 21.9944 17.4586 22.1594C17.2393 22.3244 17.0661 22.5255 16.9377 22.7636C16.8093 23.0036 16.7487 23.2712 16.7487 23.5693H13.1643C13.1643 22.8624 13.3172 22.2223 13.6273 21.6467C13.9374 21.0711 14.3594 20.5813 14.8928 20.1782C15.4262 19.7732 16.0527 19.4602 16.7718 19.237C17.4909 19.0139 18.2574 18.9001 19.0752 18.9001Z" fill="#AAA4F4"/>
</svg>
