<svg width="300" height="118" viewBox="0 0 300 118" fill="none" xmlns="http://www.w3.org/2000/svg">
<g clip-path="url(#clip0_231_295)">
<path d="M124.19 23.259C124.069 23.5121 124.166 23.7892 124.13 24.0543V25.8858C124.154 26.1147 124.069 26.3557 124.19 26.5847V27.0305C124.021 28.0306 124.057 29.0428 123.913 30.0308C123.647 31.8141 123.056 33.501 122.369 35.1639C121.995 36.0676 121.271 37.5015 120.716 38.3088C118.666 41.285 116.121 43.6828 113.07 45.4902C109.319 47.7073 105.206 48.9002 100.876 49.5147C99.9477 49.6473 98.9949 49.7075 98.0542 49.7557C97.2099 49.7919 96.3657 49.8401 95.5214 49.8401C93.7364 49.8642 91.9514 49.7075 90.1906 49.4063C88.9001 49.1894 87.6578 49.4304 86.4155 49.6714C83.8345 50.1654 81.2415 50.6474 78.6484 51.0932C77.9247 51.2137 77.189 51.2017 76.4654 51.3463H75.6935C75.4402 51.2258 75.1749 51.3222 74.9096 51.286C74.7286 51.286 74.5477 51.286 74.3789 51.286C71.6049 51.2499 69.3254 48.3218 69.1083 45.8276C68.9877 44.5142 69.3737 43.3093 69.5304 42.0682C69.6149 41.3934 69.7596 40.7186 69.9284 40.068C70.3988 38.2365 69.9888 36.5616 69.2289 34.8867C67.9987 32.1515 67.5042 29.1512 67.4801 26.1629C67.468 24.4278 67.4922 22.6806 67.6128 20.9455C67.7696 18.7284 68.4208 16.6198 69.3013 14.5955C70.0611 12.8483 71.038 11.1855 72.2321 9.71546C73.8241 7.7514 75.6814 6.10063 77.8283 4.75109C81.0364 2.73884 84.5099 1.42545 88.2126 0.642238C89.7684 0.316904 91.3484 0.220508 92.9284 0.160261C94.2309 0.112063 95.5335 0.136162 96.824 0.112063C101.033 0.0638657 105.242 0.774782 109.138 2.35326C111.924 3.47386 114.517 4.94389 116.797 6.94409C119.245 9.10094 121.09 11.6675 122.393 14.6557C123.104 16.2824 123.611 17.9693 123.913 19.7165C124.093 20.7407 124.045 21.801 124.19 22.8373V23.2831V23.259Z" fill="#F5F04F"/>
<path d="M81.7118 25.9942C81.5671 23.8735 83.2194 22.1625 85.2698 22.2107C87.2477 22.2589 88.8036 23.8615 88.7433 25.8014C88.683 27.9101 86.8256 29.5247 84.6667 29.1994C83.0868 28.9584 81.8083 27.5848 81.6998 25.9942H81.7118Z" fill="#7268DD"/>
<path d="M109.934 25.1628C110.248 27.4161 108.547 29.2717 106.4 29.2355C104.422 29.1994 102.879 27.5968 102.927 25.6448C102.987 23.3554 105.182 21.6324 107.57 22.3794C108.812 22.765 109.765 23.8856 109.934 25.1628Z" fill="#7268DD"/>
<path d="M95.7747 29.2355C93.8088 29.1873 92.2771 27.6089 92.3133 25.681C92.3494 23.6928 93.9415 22.1505 95.9074 22.1987C97.8733 22.2469 99.405 23.8253 99.3688 25.7533C99.3326 27.7294 97.7406 29.2837 95.7747 29.2355Z" fill="#7268DD"/>
<path d="M3.34084 72.6737C5.57209 68.5167 8.62347 65.2995 12.5312 62.9981C16.4268 60.7087 20.8049 59.564 25.6533 59.564C29.8384 59.564 33.7461 60.5279 37.3402 62.4558C40.9464 64.3837 43.6962 66.9262 45.5898 70.059V41.5862H54.6354V114.232H45.5898V104.123C43.8168 107.328 41.1997 109.967 37.7261 112.027C34.2526 114.088 30.1882 115.124 25.5448 115.124C20.9014 115.124 16.4147 113.943 12.5191 111.593C8.62347 109.232 5.56003 105.93 3.32878 101.677C1.09754 97.4233 -0.0120544 92.5794 -0.0120544 87.1451C-0.0120544 81.7108 1.09754 76.8188 3.32878 72.6617L3.34084 72.6737ZM43.1414 76.6501C41.5012 73.6377 39.294 71.3363 36.508 69.7337C33.722 68.1311 30.6585 67.3238 27.3177 67.3238C23.9768 67.3238 20.9255 68.107 18.1756 69.6734C15.4258 71.2399 13.2307 73.5413 11.5904 76.5416C9.95016 79.5419 9.13002 83.0845 9.13002 87.1451C9.13002 91.2058 9.95016 94.8568 11.5904 97.8932C13.2307 100.942 15.4258 103.255 18.1756 104.87C20.9255 106.472 23.9768 107.28 27.3177 107.28C30.6585 107.28 33.722 106.484 36.508 104.87C39.294 103.267 41.5012 100.942 43.1414 97.8932C44.7817 94.8568 45.6018 91.3022 45.6018 87.2415C45.6018 83.1809 44.7817 79.6504 43.1414 76.638V76.6501Z" fill="#7268DD"/>
<path d="M78.7087 60.4556H69.7716V114.256H78.7087V60.4556Z" fill="#7268DD"/>
<path d="M113.986 106.002L130.691 60.4556H140.219L119.088 114.256H108.668L87.5372 60.4556H97.1617L113.962 106.002H113.986Z" fill="#AAA4F4"/>
<path d="M197.905 90.6877H154.86C155.186 95.9894 157.007 100.122 160.312 103.111C163.617 106.087 167.633 107.581 172.349 107.581C176.22 107.581 179.44 106.677 182.033 104.882C184.627 103.087 186.436 100.677 187.485 97.6643H197.109C195.674 102.833 192.792 107.039 188.462 110.28C184.132 113.521 178.765 115.136 172.349 115.136C167.235 115.136 162.664 113.991 158.636 111.702C154.607 109.412 151.447 106.159 149.156 101.93C146.864 97.7125 145.718 92.8204 145.718 87.2536C145.718 81.6867 146.828 76.8188 149.059 72.6256C151.29 68.4444 154.414 65.2152 158.443 62.9499C162.471 60.6846 167.102 59.564 172.349 59.564C177.595 59.564 181.985 60.6725 185.905 62.9017C189.837 65.1308 192.864 68.1914 194.999 72.0833C197.134 75.9753 198.195 80.3733 198.195 85.2895C198.195 86.9885 198.098 88.7959 197.905 90.6877ZM186.701 74.6378C185.193 72.1797 183.143 70.3241 180.562 69.0469C177.969 67.7696 175.111 67.131 171.963 67.131C167.44 67.131 163.592 68.5649 160.421 71.4447C157.249 74.3245 155.427 78.3129 154.969 83.4218H188.968C188.968 80.0239 188.221 77.0838 186.713 74.6378H186.701Z" fill="#AAA4F4"/>
<path d="M252.143 65.4079C256.207 69.3722 258.233 75.0836 258.233 82.5422V114.256H249.393V83.8195C249.393 78.4575 248.054 74.3486 245.365 71.5049C242.675 68.6613 239.009 67.2395 234.353 67.2395C229.698 67.2395 225.886 68.7095 223.1 71.6616C220.314 74.6017 218.927 78.8913 218.927 84.5183V114.268H209.99V60.4677H218.927V68.1191C220.7 65.3718 223.1 63.239 226.152 61.7329C229.203 60.2267 232.556 59.4796 236.223 59.4796C242.772 59.4796 248.078 61.4557 252.143 65.42V65.4079Z" fill="#AAA4F4"/>
<path d="M285.949 70.6615V102.376C285.949 104.99 286.504 106.846 287.614 107.918C288.723 108.991 290.665 109.533 293.415 109.533H300V117.088H291.943C286.962 117.088 283.235 115.943 280.739 113.654C278.242 111.364 277 107.605 277 102.364V70.6494H270.029V63.2872H277V49.7437H285.937V63.2872H299.988V70.6494H285.937L285.949 70.6615Z" fill="#C7C3F5"/>
</g>
<defs>
<clipPath id="clip0_231_295">
<rect width="300" height="117" fill="white" transform="translate(0 0.100006)"/>
</clipPath>
</defs>
</svg>
