<svg width="216" height="84" viewBox="0 0 216 84" fill="none" xmlns="http://www.w3.org/2000/svg">
<g clip-path="url(#clip0_236_296)">
<path d="M89.4168 16.627C89.3299 16.8087 89.3994 17.0076 89.3733 17.198V18.5129C89.3907 18.6773 89.3299 18.8503 89.4168 19.0146V19.3347C89.2952 20.0527 89.3212 20.7794 89.217 21.4888C89.026 22.7691 88.6005 23.9802 88.1055 25.1741C87.8363 25.8229 87.3153 26.8523 86.9158 27.4319C85.4396 29.5687 83.6073 31.2902 81.4103 32.5879C78.7097 34.1796 75.7485 35.0361 72.631 35.4773C71.9624 35.5724 71.2764 35.6157 70.599 35.6503C69.9912 35.6762 69.3833 35.7108 68.7754 35.7108C67.4902 35.7281 66.205 35.6157 64.9372 35.3994C64.008 35.2437 63.1136 35.4167 62.2192 35.5897C60.3609 35.9444 58.4939 36.2904 56.6268 36.6105C56.1058 36.697 55.5761 36.6884 55.0551 36.7922H54.4993C54.317 36.7057 54.1259 36.7749 53.9349 36.7489C53.8046 36.7489 53.6744 36.7489 53.5528 36.7489C51.5555 36.723 49.9143 34.6208 49.758 32.8301C49.6712 31.8871 49.949 31.0221 50.0619 30.131C50.1227 29.6466 50.2269 29.1621 50.3485 28.695C50.6872 27.38 50.3919 26.1776 49.8448 24.9751C48.9591 23.0113 48.603 20.8573 48.5857 18.7119C48.577 17.4661 48.5944 16.2118 48.6812 14.966C48.7941 13.3743 49.263 11.8604 49.8969 10.407C50.444 9.15264 51.1474 7.95882 52.0071 6.90341C53.1533 5.49332 54.4906 4.30815 56.0364 3.33925C58.3462 1.89456 60.8472 0.95161 63.5131 0.389303C64.6333 0.155729 65.7709 0.0865222 66.9084 0.0432679C67.8463 0.00866435 68.7841 0.0259661 69.7133 0.00866435C72.7439 -0.0259392 75.7746 0.484463 78.5794 1.61773C80.5854 2.42226 82.4524 3.47767 84.0936 4.91371C85.8564 6.46222 87.185 8.30485 88.1229 10.4503C88.6352 11.6181 88.9999 12.8293 89.217 14.0836C89.3473 14.819 89.3125 15.5802 89.4168 16.3242V16.6443V16.627Z" fill="#F5F04F"/>
<path d="M58.8325 18.5907C58.7283 17.0682 59.918 15.8398 61.3942 15.8744C62.8184 15.909 63.9386 17.0595 63.8952 18.4523C63.8518 19.9662 62.5145 21.1255 60.9601 20.8919C59.8225 20.7189 58.902 19.7327 58.8239 18.5907H58.8325Z" fill="#7268DD"/>
<path d="M79.1525 17.9938C79.3783 19.6115 78.1539 20.9438 76.6082 20.9178C75.184 20.8919 74.0725 19.7413 74.1072 18.3399C74.1507 16.6962 75.7311 15.4591 77.4505 15.9955C78.3449 16.2723 79.0309 17.0768 79.1525 17.9938Z" fill="#7268DD"/>
<path d="M68.9578 20.9178C67.5423 20.8832 66.4395 19.75 66.4655 18.3658C66.4916 16.9384 67.6378 15.8311 69.0533 15.8657C70.4687 15.9003 71.5716 17.0336 71.5455 18.4177C71.5195 19.8365 70.3732 20.9524 68.9578 20.9178Z" fill="#7268DD"/>
<path d="M2.40542 52.1042C4.01192 49.1197 6.20891 46.8099 9.02245 45.1576C11.8273 43.5139 14.9795 42.6921 18.4704 42.6921C21.4837 42.6921 24.2972 43.3841 26.885 44.7683C29.4814 46.1524 31.4613 47.9778 32.8247 50.227V29.785H39.3375V81.9411H32.8247V74.683C31.5481 76.9841 29.6638 78.8787 27.1628 80.358C24.6619 81.8373 21.7355 82.5813 18.3922 82.5813C15.049 82.5813 11.8186 81.7335 9.01377 80.0466C6.20891 78.351 4.00323 75.9806 2.39674 72.9269C0.790239 69.8731 -0.00866699 66.3955 -0.00866699 62.4939C-0.00866699 58.5924 0.790239 55.0801 2.39674 52.0956L2.40542 52.1042ZM31.0618 54.959C29.8809 52.7963 28.2917 51.144 26.2858 49.9934C24.2798 48.8429 22.0742 48.2632 19.6687 48.2632C17.2633 48.2632 15.0664 48.8255 13.0865 49.9502C11.1066 51.0748 9.52611 52.7271 8.34512 54.8812C7.16412 57.0352 6.57363 59.5786 6.57363 62.4939C6.57363 65.4093 7.16412 68.0305 8.34512 70.2105C9.52611 72.3992 11.1066 74.0601 13.0865 75.2194C15.0664 76.3699 17.2633 76.9495 19.6687 76.9495C22.0742 76.9495 24.2798 76.3786 26.2858 75.2194C28.2917 74.0688 29.8809 72.3992 31.0618 70.2105C32.2428 68.0305 32.8333 65.4785 32.8333 62.5631C32.8333 59.6478 32.2428 57.1131 31.0618 54.9504V54.959Z" fill="#7268DD"/>
<path d="M56.6703 43.3322H50.2356V81.9584H56.6703V43.3322Z" fill="#7268DD"/>
<path d="M82.0703 76.0326L94.0973 43.3322H100.957L85.7435 81.9584H78.2407L63.0268 43.3322H69.9564L82.0529 76.0326H82.0703Z" fill="#AAA4F4"/>
<path d="M142.492 65.0373H111.5C111.734 68.8437 113.045 71.8109 115.425 73.9563C117.804 76.0931 120.696 77.1658 124.091 77.1658C126.878 77.1658 129.197 76.517 131.064 75.228C132.931 73.939 134.234 72.2089 134.989 70.0461H141.919C140.885 73.7574 138.81 76.7765 135.693 79.1036C132.575 81.4307 128.711 82.5899 124.091 82.5899C120.409 82.5899 117.118 81.7681 114.218 80.1244C111.317 78.4808 109.042 76.145 107.392 73.1086C105.742 70.0808 104.917 66.5685 104.917 62.5718C104.917 58.5751 105.716 55.0801 107.323 52.0696C108.929 49.0678 111.178 46.7493 114.079 45.123C116.979 43.4966 120.314 42.6921 124.091 42.6921C127.868 42.6921 131.029 43.488 133.852 45.0884C136.682 46.6888 138.862 48.8861 140.399 51.6803C141.936 54.4746 142.7 57.6321 142.7 61.1617C142.7 62.3815 142.631 63.6791 142.492 65.0373ZM134.425 53.5143C133.339 51.7495 131.863 50.4173 130.005 49.5003C128.138 48.5833 126.08 48.1248 123.813 48.1248C120.557 48.1248 117.787 49.1543 115.503 51.2218C113.219 53.2894 111.908 56.1528 111.578 59.8208H136.057C136.057 57.3813 135.519 55.2705 134.433 53.5143H134.425Z" fill="#AAA4F4"/>
<path d="M181.543 46.8877C184.469 49.7339 185.928 53.8344 185.928 59.1893V81.9584H179.563V60.1063C179.563 56.2566 178.599 53.3067 176.663 51.2651C174.726 49.2235 172.086 48.2027 168.734 48.2027C165.382 48.2027 162.638 49.2581 160.632 51.3775C158.626 53.4884 157.628 56.5681 157.628 60.608V81.967H151.193V43.3409H157.628V48.8342C158.904 46.8618 160.632 45.3306 162.829 44.2492C165.026 43.1679 167.44 42.6315 170.08 42.6315C174.796 42.6315 178.616 44.0502 181.543 46.8964V46.8877Z" fill="#AAA4F4"/>
<path d="M205.883 50.6595V73.4286C205.883 75.3059 206.283 76.6381 207.082 77.408C207.881 78.178 209.279 78.5672 211.259 78.5672H216V83.9913H210.199C206.613 83.9913 203.93 83.1695 202.132 81.5258C200.335 79.8822 199.44 77.1831 199.44 73.42V50.6509H194.421V45.3652H199.44V35.6416H205.875V45.3652H215.991V50.6509H205.875L205.883 50.6595Z" fill="#AAA4F4"/>
</g>
<defs>
<clipPath id="clip0_236_296">
<rect width="216" height="84" fill="white"/>
</clipPath>
</defs>
</svg>
