<svg width="43" height="41" viewBox="0 0 43 41" fill="none" xmlns="http://www.w3.org/2000/svg">
<path d="M8.55241 4.09998C7.01219 4.09998 5.73333 5.31935 5.73333 6.78793V10.0952C5.26045 10.3447 4.82582 10.6631 4.47637 11.0721C3.66384 12.0222 3.3396 13.2733 3.59733 14.4754V14.4781C4.35874 18.01 5.4172 22.9217 5.48418 23.2333C5.4173 23.5443 4.36301 28.435 3.60293 31.9672C3.34309 33.1752 3.66986 34.4316 4.48477 35.3865V35.3892C5.30182 36.344 6.528 36.9 7.82175 36.9H35.1195C36.4268 36.9 37.6662 36.3381 38.4928 35.3732V35.3705C39.3183 34.4045 39.6483 33.1345 39.3859 31.9138C38.626 28.3836 37.5824 23.543 37.5158 23.2333C37.5828 22.9216 38.6425 18.0026 39.4027 14.4701C39.6606 13.271 39.3385 12.0196 38.5264 11.0694L38.5236 11.0668C38.174 10.6581 37.7399 10.3412 37.2667 10.0925V6.78793C37.2667 5.31935 35.9878 4.09998 34.4476 4.09998H8.55241ZM8.6 6.83331H34.4V9.56664H8.6V6.83331ZM17.3512 17.8761C18.0105 17.8761 18.6122 17.9513 19.154 18.103C19.6973 18.2547 20.1639 18.4803 20.5538 18.781C20.9436 19.0816 21.2472 19.4539 21.4636 19.8967C21.68 20.3395 21.7855 20.8533 21.7855 21.4369C21.7855 21.7061 21.7442 21.9712 21.6568 22.235C21.5693 22.4974 21.441 22.7447 21.2704 22.9771C21.2016 23.07 21.0988 23.1485 21.0185 23.236H15.8619V25.1338H17.2448C17.5745 25.1338 17.8726 25.1695 18.1406 25.2406C18.4072 25.3117 18.6346 25.4226 18.8209 25.5716C19.0072 25.7206 19.1475 25.913 19.2464 26.1508C19.3453 26.3886 19.3948 26.6716 19.3948 27.0023C19.3948 27.2593 19.3507 27.4926 19.2604 27.7017C19.1701 27.9108 19.0391 28.0892 18.8685 28.2409C18.6979 28.3926 18.4893 28.5113 18.2442 28.5905C17.9977 28.6712 17.7237 28.7107 17.4184 28.7107C17.1417 28.7107 16.8864 28.6712 16.6513 28.5905C16.4177 28.5099 16.2158 28.4003 16.0438 28.2595C15.8733 28.1188 15.7395 27.9518 15.6435 27.7577C15.5475 27.5637 15.5007 27.3495 15.5007 27.1144H12.9C12.9 27.7322 13.0284 28.2637 13.2835 28.7133C13.5387 29.1616 13.8742 29.5338 14.2913 29.8317C14.7084 30.1297 15.1816 30.3516 15.7163 30.4937C16.2495 30.6372 16.7964 30.7073 17.354 30.7073C18.0133 30.7073 18.6256 30.6243 19.1932 30.4617C19.7594 30.2991 20.2515 30.0633 20.6658 29.7517C21.08 29.4401 21.4035 29.0564 21.64 28.5985C21.8765 28.1407 21.9955 27.6206 21.9955 27.037C21.9955 26.351 21.815 25.7569 21.4524 25.2539C21.0898 24.751 20.5389 24.3736 19.8007 24.1222C20.1189 23.9855 20.3996 23.8172 20.6462 23.6204C20.7938 23.5015 20.8995 23.3658 21.0213 23.236H27.4993V30.5364H30.1V23.2333H27.4993V20.9831L24.3947 21.9013V19.886L29.8201 18.0309H30.1V23.2333H34.5904L34.6492 23.5082C34.6492 23.5082 35.7911 28.8212 36.5752 32.4636C36.6641 32.8812 36.5548 33.3122 36.2729 33.6435C35.9872 33.9769 35.5694 34.1666 35.1195 34.1666H7.82175C7.38689 34.1666 6.9827 33.981 6.70755 33.6595C6.43446 33.3382 6.32397 32.9208 6.41081 32.517C7.19488 28.8733 8.35085 23.5082 8.35085 23.5082L8.40964 23.2333H15.8591H17.2C17.706 23.2333 18.395 23.0378 18.7117 22.7235C19.0285 22.4091 19.1876 21.9909 19.1876 21.4716C19.1876 21.2434 19.1529 21.0291 19.0813 20.831C19.0096 20.6342 18.8971 20.4632 18.7509 20.3238C18.6033 20.1844 18.4216 20.0761 18.1994 19.9955C17.9773 19.9149 17.7151 19.8754 17.4156 19.8754C17.1762 19.8754 16.9517 19.9059 16.7381 19.9715C16.526 20.0371 16.3373 20.1315 16.1782 20.2517C16.0191 20.372 15.8934 20.5186 15.8003 20.6922C15.7071 20.8671 15.6631 21.0621 15.6631 21.2794H13.0624C13.0624 20.7642 13.1733 20.2976 13.3983 19.878C13.6233 19.4585 13.9295 19.1015 14.3165 18.8077C14.7035 18.5125 15.1582 18.2843 15.6799 18.1217C16.2016 17.959 16.7578 17.8761 17.3512 17.8761Z" fill="#6058BC"/>
</svg>
