<svg width="43" height="43" viewBox="0 0 43 43" fill="none" xmlns="http://www.w3.org/2000/svg">
<path d="M21.5 0C9.62663 0 0 9.62663 0 21.5C0 33.3734 9.62663 43 21.5 43C33.3734 43 43 33.3734 43 21.5C43 9.62663 33.3734 0 21.5 0ZM32.25 23.2917H23.2917V32.25C23.2917 33.2408 22.489 34.0417 21.5 34.0417C20.511 34.0417 19.7083 33.2408 19.7083 32.25V23.2917H10.75C9.761 23.2917 8.95833 22.4908 8.95833 21.5C8.95833 20.5092 9.761 19.7083 10.75 19.7083H19.7083V10.75C19.7083 9.75921 20.511 8.95833 21.5 8.95833C22.489 8.95833 23.2917 9.75921 23.2917 10.75V19.7083H32.25C33.239 19.7083 34.0417 20.5092 34.0417 21.5C34.0417 22.4908 33.239 23.2917 32.25 23.2917Z" fill="#6058BC"/>
</svg>
