<svg width="33" height="32" viewBox="0 0 33 32" fill="none" xmlns="http://www.w3.org/2000/svg">
<path d="M20.625 21.3329V18.6661C21.2437 18.3688 23.0134 16.326 23.199 14.7299C23.6857 14.6939 24.4502 14.2606 24.6757 12.5499C24.7967 11.6312 24.3155 11.1151 24.024 10.9525C24.024 10.9525 24.75 9.61507 24.75 8.00033C24.75 4.76287 23.4396 2.00008 20.625 2.00008C20.625 2.00008 19.6474 0 16.5 0C10.6672 0 8.25 3.62815 8.25 8.00033C8.25 9.4724 8.976 10.9525 8.976 10.9525C8.6845 11.1151 8.20325 11.6325 8.32425 12.5499C8.54975 14.2606 9.31425 14.6939 9.801 14.7299C9.98663 16.326 11.7563 18.3688 12.375 18.6661V21.3329C11 25.3331 0 22.6663 0 32H33C33 22.6663 22 25.3331 20.625 21.3329Z" fill="#6058BC"/>
</svg>
