<svg width="43" height="41" viewBox="0 0 43 41" fill="none" xmlns="http://www.w3.org/2000/svg">
<path d="M8.55241 4.1001C7.01219 4.1001 5.73333 5.31947 5.73333 6.78805V10.0953C5.26045 10.3448 4.82582 10.6632 4.47637 11.0722C3.66384 12.0223 3.3396 13.2734 3.59733 14.4756V14.4782C4.35874 18.0101 5.4172 22.9219 5.48418 23.2334C5.4173 23.5444 4.36301 28.4351 3.60293 31.9673C3.34309 33.1753 3.66986 34.4317 4.48477 35.3866V35.3893C5.30182 36.3441 6.528 36.9001 7.82175 36.9001H35.1195C36.4268 36.9001 37.6662 36.3382 38.4928 35.3733V35.3706C39.3183 34.4046 39.6483 33.1346 39.3859 31.9139C38.626 28.3838 37.5824 23.5431 37.5158 23.2334C37.5828 22.9217 38.6425 18.0027 39.4027 14.4702C39.6606 13.2712 39.3385 12.0197 38.5264 11.0696L38.5236 11.0669C38.174 10.6582 37.7399 10.3413 37.2667 10.0926V6.78805C37.2667 5.31947 35.9878 4.1001 34.4476 4.1001H8.55241ZM8.6 6.83343H34.4V9.56676H8.6V6.83343ZM17.3512 17.8762C18.0105 17.8762 18.6122 17.9514 19.154 18.1031C19.6973 18.2548 20.1639 18.4804 20.5538 18.7811C20.9436 19.0818 21.2472 19.454 21.4636 19.8968C21.68 20.3396 21.7855 20.8534 21.7855 21.437C21.7855 21.7062 21.7442 21.9714 21.6568 22.2351C21.5693 22.4975 21.441 22.7448 21.2704 22.9772C21.2016 23.0701 21.0988 23.1486 21.0185 23.2361H15.8619V25.134H17.2448C17.5745 25.134 17.8726 25.1697 18.1406 25.2407C18.4072 25.3118 18.6346 25.4227 18.8209 25.5717C19.0072 25.7207 19.1475 25.9131 19.2464 26.1509C19.3453 26.3887 19.3948 26.6717 19.3948 27.0024C19.3948 27.2594 19.3507 27.4927 19.2604 27.7018C19.1701 27.9109 19.0391 28.0893 18.8685 28.241C18.6979 28.3927 18.4893 28.5114 18.2442 28.5907C17.9977 28.6713 17.7237 28.7108 17.4184 28.7108C17.1417 28.7108 16.8864 28.6713 16.6513 28.5907C16.4177 28.51 16.2158 28.4004 16.0438 28.2597C15.8733 28.1189 15.7395 27.9519 15.6435 27.7578C15.5475 27.5638 15.5007 27.3496 15.5007 27.1146H12.9C12.9 27.7323 13.0284 28.2638 13.2835 28.7134C13.5387 29.1617 13.8742 29.5339 14.2913 29.8319C14.7084 30.1298 15.1816 30.3517 15.7163 30.4938C16.2495 30.6373 16.7964 30.7074 17.354 30.7074C18.0133 30.7074 18.6256 30.6245 19.1932 30.4618C19.7594 30.2992 20.2515 30.0634 20.6658 29.7518C21.08 29.4402 21.4035 29.0565 21.64 28.5987C21.8765 28.1408 21.9955 27.6207 21.9955 27.0371C21.9955 26.3511 21.815 25.757 21.4524 25.2541C21.0898 24.7511 20.5389 24.3738 19.8007 24.1223C20.1189 23.9856 20.3996 23.8173 20.6462 23.6205C20.7938 23.5016 20.8995 23.3659 21.0213 23.2361H27.4993V30.5366H30.1V23.2334H27.4993V20.9832L24.3947 21.9015V19.8862L29.8201 18.031H30.1V23.2334H34.5904L34.6492 23.5084C34.6492 23.5084 35.7911 28.8213 36.5752 32.4638C36.6641 32.8813 36.5548 33.3123 36.2729 33.6436C35.9872 33.977 35.5694 34.1668 35.1195 34.1668H7.82175C7.38689 34.1668 6.9827 33.9812 6.70755 33.6596C6.43446 33.3383 6.32397 32.9209 6.41081 32.5172C7.19488 28.8735 8.35085 23.5084 8.35085 23.5084L8.40964 23.2334H15.8591H17.2C17.706 23.2334 18.395 23.0379 18.7117 22.7236C19.0285 22.4093 19.1876 21.991 19.1876 21.4717C19.1876 21.2435 19.1529 21.0293 19.0813 20.8311C19.0096 20.6343 18.8971 20.4633 18.7509 20.3239C18.6033 20.1845 18.4216 20.0762 18.1994 19.9956C17.9773 19.915 17.7151 19.8755 17.4156 19.8755C17.1762 19.8755 16.9517 19.906 16.7381 19.9716C16.526 20.0372 16.3373 20.1316 16.1782 20.2519C16.0191 20.3721 15.8934 20.5187 15.8003 20.6923C15.7071 20.8672 15.6631 21.0622 15.6631 21.2795H13.0624C13.0624 20.7643 13.1733 20.2977 13.3983 19.8782C13.6233 19.4586 13.9295 19.1016 14.3165 18.8078C14.7035 18.5126 15.1582 18.2844 15.6799 18.1218C16.2016 17.9591 16.7578 17.8762 17.3512 17.8762Z" fill="#AAA4F4"/>
</svg>
