<svg width="37" height="32" viewBox="0 0 37 32" fill="none" xmlns="http://www.w3.org/2000/svg">
<path d="M3.7 7.46666C3.53656 7.46466 3.3743 7.49077 3.22264 7.54348C3.07098 7.59619 2.93295 7.67444 2.81656 7.77369C2.70017 7.87294 2.60775 7.9912 2.54466 8.12161C2.48158 8.25202 2.4491 8.39197 2.4491 8.53333C2.4491 8.67469 2.48158 8.81464 2.54466 8.94504C2.60775 9.07545 2.70017 9.19372 2.81656 9.29296C2.93295 9.39221 3.07098 9.47046 3.22264 9.52317C3.3743 9.57588 3.53656 9.60199 3.7 9.59999H33.3C33.4634 9.60199 33.6257 9.57588 33.7773 9.52317C33.929 9.47046 34.067 9.39221 34.1834 9.29296C34.2998 9.19372 34.3922 9.07545 34.4553 8.94504C34.5184 8.81464 34.5509 8.67469 34.5509 8.53333C34.5509 8.39197 34.5184 8.25202 34.4553 8.12161C34.3922 7.9912 34.2998 7.87294 34.1834 7.77369C34.067 7.67444 33.929 7.59619 33.7773 7.54348C33.6257 7.49077 33.4634 7.46466 33.3 7.46666H3.7ZM3.7 14.9333C3.53656 14.9313 3.3743 14.9574 3.22264 15.0101C3.07098 15.0629 2.93295 15.1411 2.81656 15.2404C2.70017 15.3396 2.60775 15.4579 2.54466 15.5883C2.48158 15.7187 2.4491 15.8586 2.4491 16C2.4491 16.1414 2.48158 16.2813 2.54466 16.4117C2.60775 16.5421 2.70017 16.6604 2.81656 16.7596C2.93295 16.8589 3.07098 16.9371 3.22264 16.9898C3.3743 17.0425 3.53656 17.0687 3.7 17.0667H33.3C33.4634 17.0687 33.6257 17.0425 33.7773 16.9898C33.929 16.9371 34.067 16.8589 34.1834 16.7596C34.2998 16.6604 34.3922 16.5421 34.4553 16.4117C34.5184 16.2813 34.5509 16.1414 34.5509 16C34.5509 15.8586 34.5184 15.7187 34.4553 15.5883C34.3922 15.4579 34.2998 15.3396 34.1834 15.2404C34.067 15.1411 33.929 15.0629 33.7773 15.0101C33.6257 14.9574 33.4634 14.9313 33.3 14.9333H3.7ZM3.7 22.4C3.53656 22.398 3.3743 22.4241 3.22264 22.4768C3.07098 22.5295 2.93295 22.6078 2.81656 22.707C2.70017 22.8063 2.60775 22.9245 2.54466 23.0549C2.48158 23.1853 2.4491 23.3253 2.4491 23.4667C2.4491 23.608 2.48158 23.748 2.54466 23.8784C2.60775 24.0088 2.70017 24.1271 2.81656 24.2263C2.93295 24.3255 3.07098 24.4038 3.22264 24.4565C3.3743 24.5092 3.53656 24.5353 3.7 24.5333H33.3C33.4634 24.5353 33.6257 24.5092 33.7773 24.4565C33.929 24.4038 34.067 24.3255 34.1834 24.2263C34.2998 24.1271 34.3922 24.0088 34.4553 23.8784C34.5184 23.748 34.5509 23.608 34.5509 23.4667C34.5509 23.3253 34.5184 23.1853 34.4553 23.0549C34.3922 22.9245 34.2998 22.8063 34.1834 22.707C34.067 22.6078 33.929 22.5295 33.7773 22.4768C33.6257 22.4241 33.4634 22.398 33.3 22.4H3.7Z" fill="#AAA4F4"/>
</svg>
