<svg width="32" height="32" viewBox="0 0 32 32" fill="none" xmlns="http://www.w3.org/2000/svg">
<path d="M16 0C7.164 0 0 7.164 0 16C0 24.836 7.164 32 16 32C24.836 32 32 24.836 32 16C32 7.164 24.836 0 16 0ZM24 17.3333H17.3333V24C17.3333 24.7373 16.736 25.3333 16 25.3333C15.264 25.3333 14.6667 24.7373 14.6667 24V17.3333H8C7.264 17.3333 6.66667 16.7373 6.66667 16C6.66667 15.2627 7.264 14.6667 8 14.6667H14.6667V8C14.6667 7.26267 15.264 6.66667 16 6.66667C16.736 6.66667 17.3333 7.26267 17.3333 8V14.6667H24C24.736 14.6667 25.3333 15.2627 25.3333 16C25.3333 16.7373 24.736 17.3333 24 17.3333Z" fill="#AAA4F4"/>
</svg>
